<svg id="Layer_1" data-name="Layer 1" xmlns="http://www.w3.org/2000/svg" viewBox="0 0 605.04492 147.67681"><defs><style>.cls-1{fill:#fff;}</style></defs><title>logotyp</title><path class="cls-1" d="M17.04584,71.55589l1.3174,1.4238c-1.8653,2.7188-1.0781,3.4795.7344,5.4375l17.7558,19.1914c1.7305,1.8701,4.1231,4.3652,5.8535,4.0029a5.0583,5.0583,0,0,0,3.0293-2.8007c2.4649-4.9258.4297-12.2168-1.50188-16.628l0.71288-.6582,9.3242,16.3301s-0.9024.0068-2.7725,1.7383l-17.6318,16.3144-1.3174-1.4257c1.4814-2.77541.68462-3.27841-.9629-5.0596L10.37,86.49239c-1.7314-1.87011-2.2119-2.748-5.05168-1.4404l-1.31842-1.4268Z" transform="translate(-3.99994 -5.99628)"/><path class="cls-1" d="M49.65136,46.39959l1.07418,1.6172c-2.1416,2.5879-1.5049,3.9844.08882,6.7129l10.67188,17.3818c1.1416,1.71879,3.79012,7.2422,8.7715,7.0655,2.0684-.0645,5.6895-2.3965,6.60162-4.3135,2.53318-5.1777-2.43752-10.9063-3.78132-12.709l-10.5742-14.167c-1.6797-2.3096-2.8711-4.2129-6.6738-3.3613l-1.0742-1.6172,11.0664-7.3496,1.0732,1.6182c-2.4775,2.955-1.4873,4.5556.543,7.5029L78.079,59.926c2.3174,3.2676,6.7998,9.02929,3.625,15.65429-2.6689,5.84961-11.1748,11.57321-17.417,11.93261-6.7988.5098-9.5332-4.375-12.2012-8.5019L39.869,59.74239c-1.42568-2.2568-1.67768-2.5273-3.9511-1.8906l-1.0733-1.6172Z" transform="translate(-3.99994 -5.99628)"/><path class="cls-1" d="M123.35836,52.35079c0.79,1.9053.93358,2.5693,3.41988,2.3916l0.7442,1.79389-10.3096,4.27451-0.7442-1.793c1.504-1.2813,2.1065-1.72751,1.6661-3.583-1.2461-5.06451-3.5342-6.93951-8.7539-10.0283l-21.8702-12.669,11.4795,27.6836c1.1846,2.8565,1.3145,4.11719,4.8135,3.8477l0.7441,1.7939-10.64738,4.4141-0.74422-1.793c2.5-1.8906,1.6856-3.06251.6641-5.5283l-12.2471-29.5313c-0.88178-2.1308-.7646-2.6386-3.21578-2.2138l-0.74312-1.793,18.4912-7.668,0.7441,1.794c-1.8926,1.7685.4531,2.833,0.793,3.0215,2.2695,1.35539,3.0761,1.875,4.38182,2.64739l7.124,3.875-3.39252-8.18059c-1.02248-2.4659-1.1934-3.5108-4.1426-3.3389l-0.7442-1.794,10.3116-4.2753c0.0459,0.1123.7666,1.8505,0.7666,1.8505-2.4727,2.2725-1.9961,2.4688-.8125,5.3272Z" transform="translate(-3.99994 -5.99628)"/><path class="cls-1" d="M132.00583,53.14669c2.791-1.3691,2.33-2.708,1.9062-5.3438l-4.8184-30.0078c-0.4238-2.6347-.3574-3.7509-3.4472-4.2373l-0.3076-1.9179,16.1123-2.587c6.7685-1.0878,15.2695-1.7158,21.4765,5.9502,5.2774,6.4639,7.8242,17.7276,4.6446,25.8575-3.5743,9.1152-10.4024,10.2109-16.9903,11.2695l-18.2685,2.9326Zm12.8554-11.7715c1.2989,8.085,5.9356,6.3565,7.1963,5.78709,2.6494-1.10059,3.9082-3.209,4.542-5.76849,1.4219-6.06551-1.1758-18.7959-5.7197-24.5176-1.9502-2.5733-3.6983-3.8906-6.4121-3.5762-3.5616.3867-3.81938,1.8408-2.8975,7.5908Z" transform="translate(-3.99994 -5.99628)"/><path class="cls-1" d="M204.77436,7.18969L204.664,8.76389c-0.751.3125-1.7325,0.4258-1.3223,3.251l5.5234,34.0127c0.3926,2.21769.5098,2.2861,2.291,3.748l-0.1347,1.9365-15.91408-1.1142,0.13478-1.93561c2.5703-1.09669,2.2871-3.124,2.19922-4.46779a13.35847,13.35847,0,0,0-5.90622-10.3261,13.49731,13.49731,0,0,0-5.8233-1.9258s-3.8271,11.2236-3.9853,11.76069c-0.3155,1.01081-.7286,2.56351,1.8974,4.14551l-0.1347,1.9366-10.8926-.7637,0.13572-1.9346a5.962,5.962,0,0,0,2.80858-3.6347l12.4863-32.4493c0.5176-1.3007.9434-3.0332-.4228-3.4951l0.1064-1.51171Zm-9.25292,24.4658-3.0039-18.7559-5.4375,15.125c3.3926,0.1768,5.3388,1.043,8.4414,3.6309" transform="translate(-3.99994 -5.99628)"/><path class="cls-1" d="M226.44723,12.508l0.5712-1.8545,16.6973,5.1377-0.5713,1.8545c-3.4922.0049-3.54,1.1963-4.3613,3.8633l-2.623,8.5215s10.9531-6.7197,11.5957-7.1563c2.3769-1.7461,1.2539-3.04391.375-3.6943l0.5703-1.8545,13.4511,4.1387-0.5703,1.8554c-4.7597-.0048-10.2412,1.92679-15.2363,5.7842,2.043,5.3242,3.1035,17.1377,2.877,23.0342l-0.15628,4.0127c-0.17382,3.2471-.05372,5.126,3.09958,6.22169l-0.5713,1.85641-17.2187-5.2988,0.5342-1.7402a4.65431,4.65431,0,0,0,2.1591-.4141,3.31768,3.31768,0,0,0,1.1289-1.8105c0.9444-3.0723.7764-14.4854-.8076-20.6836-0.0215-.1348-3.1933,2.1259-3.1933,2.1259l-4.2813,13.9141c-0.7627,2.6855-1.7207,3.5322,1.4942,5.665l-0.629,1.837-16.6972-5.1368,0.5703-1.85641c2.8809,0.125,3.0644-1.08789,3.8135-3.52339l9.1513-29.7422c0.7325-2.376,1.3438-3.3301-1.1718-5.0567" transform="translate(-3.99994 -5.99628)"/><path class="cls-1" d="M300.78316,40.843l-0.7441,1.3906c-0.8145-.0215-1.7559-0.31931-2.5372,2.42869l-8.8632,33.30081c-0.5489,2.1836-.4688,2.2939.5586,4.3564l-0.9141,1.7129L274.21283,76.509l0.916-1.7109c2.793,0.0488,3.36333-1.9161,3.832-3.1807a12.69471,12.69471,0,0,0-5.69723-15.9775s-8.0791,8.6826-8.4434,9.10539c-0.7012.79591-1.71287,2.042,0.03812,4.55961l-0.916,1.7129-9.62992-5.1484,0.916-1.712a5.95567,5.95567,0,0,0,4.0488-2.1689l24.66212-24.5107c1.004-.9766,2.0997-2.3838,1.042-3.3624l0.7139-1.3388Zm-18.4473,18.5459,4.9258-18.3457-11.1465,11.581c3.0235,1.5489,4.4473,3.1348,6.2207,6.7647" transform="translate(-3.99994 -5.99628)"/><path class="cls-1" d="M297.70506,82.552l18.2871-24.3506c1.6015-2.1338,2.5-2.8252.6582-5.4229l1.164-1.5527,19.5489,14.6797c1.6015,1.2031,7.6152,5.1133,6.2656,9.6367-0.875,2.9854-3.2891,4.585-7.2461,5.4072a31.10657,31.10657,0,0,1-6.5137.1895c-0.4414,6.64939-2.0703,12.8603-4.2832,19.8467l-1.8105,5.8476a1.57578,1.57578,0,0,0,.5683,1.8672l-1.166,1.5527-12.8535-9.6533,1.166-1.5527a2.12165,2.12165,0,0,0,2.3789-.3369,6.00771,6.00771,0,0,0,1.334-1.88091,39.70225,39.70225,0,0,0,1.7617-4.668,57.004,57.004,0,0,0,2.2871-10.11909l0.5489-3.457-3.4805-1.0205-9.5078,12.6601c-1.0938,1.4551-2.1875,2.9112-.3184,5.0713l-1.166,1.5527-13.9219-10.455,1.1661-1.5518c2.9707,1.0928,3.5312-.1553,5.1328-2.29m34.8261-11.3233a3.56353,3.56353,0,0,0-.082-3.9306c-0.8496-1.3955-2.9473-3.0469-4.2207-3.17-2.0625-.1816-4.2226,3.20119-5.7168,5.1905l-3.3515,4.4619a15.89641,15.89641,0,0,0,6.1015,1.1699,8.37118,8.37118,0,0,0,7.2695-3.7217" transform="translate(-3.99994 -5.99628)"/><path class="cls-1" d="M362.918,128.16919c-1.0196,1.7939-1.4551,2.3134.2109,4.1689l-0.9609,1.6875-9.7012-5.5225,0.9609-1.6875c1.9336,0.4034,2.6563.6065,3.8516-.8789,3.2363-4.0898,3.3144-7.0478,2.5527-13.06641l-3.4043-25.042-14.8261,26.043c-1.5313,2.68851-2.4473,3.56251-.0879,6.16111l-0.961,1.6875-10.0156-5.7021,0.9609-1.68651c3.0254,0.81441,3.4512-.54789,4.7735-2.86719l15.8164-27.7832c1.1406-2.003,1.6133-2.2227-.2246-3.8965l0.959-1.6875,17.3984,9.9043-0.9609,1.6865c-2.5586-.4101-1.961,2.0957-1.9004,2.4785,0.3203,2.625.4062,3.58209,0.5957,5.086l1.3066,8.0039,4.3828-7.6973c1.3203-2.3193,2.041-3.0957.0977-5.3203l0.959-1.6875,9.7011,5.5234c-0.0605.1065-.9902,1.7383-0.9902,1.7383-3.3125-.5566-3.1758-0.0605-4.707,2.627Z" transform="translate(-3.99994 -5.99628)"/><path class="cls-1" d="M374.707,137.10959c3.1074,0.0439,3.3047-1.3584,4.1211-3.8994l9.3164-28.9278c0.8184-2.54,1.3828-3.5058-1.1504-5.3418l0.5977-1.8466,24.2519,7.8086c2.1934,0.707,1.5997.7695,3.625,0.2119l-2.6679,14.6269-0.6348-.20411c-0.1523-5.46579-.9062-9.66109-5.7266-12.10539-6.8066-3.4014-6.5136-.9483-8.8398,6.0761,3.3691,1.0215,7.5527,3.0694,9.1289-2.2236l0.9238,0.2988-3.375,15.2276-0.8652-.2793c0.0449-3.1065-.1738-5.7911-3.0137-7.66121a17.86107,17.86107,0,0,0-4.0449-1.49219l-4.832,15.0118c-0.5215,1.6171-2.0488,5.9687-.7696,7.3359,1.7637,1.8437,7.0235,2.1357,9.8536,1.2617,3.3496-.8974,7.3027-4.4678,9.7695-6.9873l0.8887,0.6055-9.0059,14.1152a10.42932,10.42932,0,0,0-3.375-1.7871l-24.7715-7.9766Z" transform="translate(-3.99994 -5.99628)"/><path class="cls-1" d="M436.15616,108.56369l-0.1601,1.9355c-2.0098.0166-2.6152,0.6963-2.4531,2.41409l3.4589,28.041s8.7129-26.54589,8.7227-26.666c0.6543-2.01459.5176-2.57519-1.5078-3.10839l0.1601-1.93461,10.3379,0.85651-0.1601,1.93449c-1.0938-.03019-1.7793.15731-2.7305,2.81741l-12.2383,33.1319c-0.1718.59469-1.0429,2.2871,0.7168,3.1025l-0.1601,1.9346-13.8438-1.1465,0.1602-1.9346c2.0703-.7422,1.539-2.4287,1.4687-3.0439l-5.8242-34.0196c-0.5859-3.21381-1.1055-3.5615-2.1875-3.7109l0.1602-1.9355Z" transform="translate(-3.99994 -5.99628)"/><path class="cls-1" d="M479.73046,106.258l0.207,1.5645c-0.6738.456-1.6113,0.7617-.6465,3.4502l12.1992,32.2295c0.8262,2.0927.9551,2.1386,2.9942,3.2158l0.2519,1.9238-15.8164,2.084-0.2539-1.9248c2.3008-1.5879,1.6172-3.5166,1.2617-4.8154a12.69227,12.69227,0,0,0-13.9394-9.667s-1.5098,11.7636-1.5567,12.3193c-0.1074,1.0547-.2011,2.6572,2.6856,3.6856l0.2539,1.92279-10.8262,1.42681-0.2539-1.92481a5.9493,5.9493,0,0,0,2.0274-4.12109l5.7636-34.291c0.2481-1.378.3184-3.1622-1.1133-3.34091l-0.1972-1.50389Zm-4.1856,25.82129-6.6855-17.78119-2.3106,15.90619c3.3614-.50289,5.4395-0.043,8.9961,1.875" transform="translate(-3.99994 -5.99628)"/><path class="cls-1" d="M507.498,97.83909l0.6426,1.832c-2.791,1.7539-2.3711,2.7637-1.4844,5.2803l8.6719,24.665c0.8438,2.4043,2.0488,5.6455,3.7813,6.002A5.05731,5.05731,0,0,0,523,134.25019c4.2207-3.542,5.25-11.041,5.2285-15.8564l0.916-.3223,2.0703,18.6914s-0.83-.35161-3.2343.4951l-22.6602,7.9678-0.6465-1.832c2.4629-1.9571,1.9336-2.7373,1.127-5.0264l-10.3633-29.4707c-0.8438-2.4043-.9375-3.39941-4.0625-3.3301l-0.6465-1.831Z" transform="translate(-3.99994 -5.99628)"/><path class="cls-1" d="M542.32416,128.99039c2.1641-2.2324,1.2793-3.3359-.0078-5.6728l-14.6621-26.6211c-1.2871-2.3379-1.6016-3.4111-4.6738-2.82621l-0.9356-1.70209,22.3164-12.2901c2.0176-1.1113,1.6563-.6357,2.6426-2.4941l8.8105,11.9746-0.5839.3223c-4.0821-3.6387-7.6504-5.9668-12.7344-4.1358-7.1465,2.61919-5.1602,4.0869-1.6426,10.5987,3.0527-1.75,7.4121-3.3887,4.6445-8.167l0.8497-.4678,8.7656,12.9004-0.7949.4394c-2.2325-2.164-4.336-3.8457-7.6446-3.06251a17.73328,17.73328,0,0,0-3.8594,1.917l7.6094,13.81551c0.8184,1.4882,2.9356,5.583,4.8106,5.5908,2.5508-.0205,6.3711-3.6475,7.6758-6.3047,1.6425-3.0527,1.7558-8.3779,1.6171-11.9023l1.0489-.2315,4.0937,16.2344a10.47931,10.47931,0,0,0-3.6152,1.2305l-22.7949,12.5546Z" transform="translate(-3.99994 -5.99628)"/><path class="cls-1" d="M603.918,83.94549c1.2675,1.6289,1.5839,2.2285,3.9336,1.3965l1.1933,1.5322-8.8027,6.8623-1.1953-1.53221c1.1113-1.63379,1.5742-2.22649.6562-3.89549-2.5469-4.5527-5.2519-5.751-11.1074-7.3408l-24.4512-6.4024,18.4258,23.63769c1.9024,2.44051,2.3613,3.62111,5.6641,2.42971l1.1933,1.53129-9.0918,7.08691-1.1933-1.5303c1.9082-2.4873.8105-3.4023-.8301-5.5078l-19.6563-25.21581c-1.4179-1.81639-1.4394-2.33989-3.6875-1.27739l-1.1953-1.5312,15.791-12.3086,1.1934,1.53119c-1.3535,2.21,1.1895,2.61141,1.5664,2.70121,2.5508,0.7041,3.4649.9912,4.9277,1.3877l7.8985,1.8447-5.4434-6.9863c-1.6406-2.1045-2.0859-3.0674-4.8808-2.1182l-1.1953-1.5302,8.8046-6.8633c0.0743,0.0957,1.2305,1.5791,1.2305,1.5791-1.7793,2.8486-1.2676,2.9121.6348,5.3525Z" transform="translate(-3.99994 -5.99628)"/><path class="cls-1" d="M138.90423,107.61249l1.62112-.3984c2.02928-.4971,5.78708-1.1201,6.44918-4.2061l0.4473-.1084,0.0498,9.4873a2.3426,2.3426,0,0,0-2.0655-.0078l-18.5312,4.5508,2.5098-4.14261c4.3535-7.47459,8.0683-16.34079,5.2168-22.17479a3.69174,3.69174,0,0,0-3.1495-2.32321,4.9,4.9,0,0,0-4.0791,1.77541c-1.833,2.3427-1.4804,5.1797-1.498,6.8603l-3.43358-6.9824c4.01858-4.2959,9.71288-7.1982,14.498-6.2676a7.49244,7.49244,0,0,1,5.77148,4.94629c1.9844,4.92971.1543,8.86131-4.4941,16.19431l-2.23238,3.51369s2.67578-.65719,2.91988-0.71679" transform="translate(-3.99994 -5.99628)"/><path class="cls-1" d="M169.12883,82.43089c4.1328,4.25,5.0791,12.8476,4.3926,17.0449-0.6485,4.1543-1.9824,8.1094-6.9219,10.3252a10.3765,10.3765,0,0,1-10.0254-.7461c-5.0176-3.2217-6.0781-10.5537-6.2109-14.5215-0.0196-3.0146,1.1992-10.1416,5.45512-13.1045a10.49593,10.49593,0,0,1,3.36128-1.5107c2.4668-.6055,7.13672-0.332,9.9492,2.5127m-10.93748,15.3613c0.02148,0.293,1.05468,8.3789,3.36228,9.5459a2.5,2.5,0,0,0,2.5811-.1973c3.1357-2.29,2.205-12.8984,1.957-15.0576-0.1436-.7842-1.2031-8.1181-3.625-9.1484a2.8164,2.8164,0,0,0-2.5957.5732c-2.4746,2.15729-1.8984,11.4112-1.8926,11.4951Z" transform="translate(-3.99994 -5.99628)"/><path class="cls-1" d="M191.14053,103.40059c-0.2793,4.6689-.5859,4.9023,7.2832,6.208l-0.0791,1.333-22.9658-1.373,0.0801-1.3311c7.8437-.3681,7.7285-0.542,8.0215-5.4619l0.8398-14.0449c0.0527-.876.3106-3.7881-0.4932-4.3369-0.9619-.6856-5.9863-0.6094-7.1201-0.5537l0.044-.7071,15.77442-2.9052Z" transform="translate(-3.99994 -5.99628)"/><path class="cls-1" d="M223.92573,104.81169a8.85436,8.85436,0,0,1-3.2842,7.2832c-3.8838,2.795-10.2393,2.0215-13.5869.627-2.4854-1.0215-5.877-3.3174-6.4727-6.9141-0.3271-2.10151.3438-5.8838,2.5176-7.7256a8.39383,8.39383,0,0,1,5.6602-2.0781c-2.3985-1.4726-3.94138-3.208-4.0547-5.9912a6.71435,6.71435,0,0,1,2.48832-5.30861c3.15908-2.33589,8.19138-1.98339,11.22548-.94429,2.44052,0.8008,5.9561,2.4394,6.9678,5.86029a6.63506,6.63506,0,0,1-1.0254,5.67c-1.4951,1.84371-3.4707,2.40421-5.58688,2.81341,2.95608,1.4502,4.876,3.2149,5.15138,6.708m-14.06638,5.4219a3.8514,3.8514,0,0,0,3.539-.0566c2.13868-1.211,3.01758-5.4219,3.10158-6.76471a4.49105,4.49105,0,0,0-1.6934-4.10149,4.16377,4.16377,0,0,0-3.582-.378c-2.6064,1.208-3.3887,6.0323-3.3223,7.4903,0.0743,1.6289.4834,3.0644,1.95712,3.8105m2.44628-15.6855a3.1159,3.1159,0,0,0,2.6416,1.0937,3.53672,3.53672,0,0,0,2.8086-2.2764c0.6318-1.32511,1.1884-4.2802.246-5.8173a2.78765,2.78765,0,0,0-2.5117-1.3233c-1.834.0362-2.7695,1.3906-3.375,3.0186-0.6289,1.539-.96378,3.7695.1905,5.3047" transform="translate(-3.99994 -5.99628)"/></svg>